<?xml version="1.0" standalone="no"?>
<!DOCTYPE svg PUBLIC "-//W3C//DTD SVG 20010904//EN"
 "http://www.w3.org/TR/2001/REC-SVG-20010904/DTD/svg10.dtd">
<svg version="1.0" xmlns="http://www.w3.org/2000/svg"
 width="640.000000pt" height="638.000000pt" viewBox="0 0 640.000000 638.000000"
 preserveAspectRatio="xMidYMid meet">

<g transform="translate(0.000000,638.000000) scale(0.100000,-0.100000)"
fill="#000000" stroke="none">
<path d="M2785 6065 c-275 -38 -510 -107 -725 -214 -139 -69 -294 -171 -375
-247 -63 -58 -48 -51 53 28 299 232 683 377 1109 419 149 15 415 6 498 -16 63
-17 178 -65 172 -72 -2 -2 -31 3 -63 12 -311 82 -921 -11 -1358 -207 -262
-117 -439 -254 -688 -531 -59 -66 -204 -265 -257 -352 -116 -192 -259 -530
-283 -670 -17 -95 -30 -101 -23 -10 12 149 44 307 85 413 30 77 115 244 171
334 27 43 44 76 39 73 -18 -11 -100 -144 -157 -255 -67 -130 -104 -236 -128
-360 -15 -80 -29 -137 -42 -169 -3 -8 -1 -11 5 -7 8 5 9 -18 6 -76 -3 -46 -2
-94 3 -107 10 -26 -5 -165 -36 -326 -11 -55 -25 -151 -32 -214 -11 -97 -14
-110 -22 -85 -5 16 -10 108 -10 204 0 183 17 330 53 470 31 118 32 128 10 75
-67 -165 -105 -579 -69 -755 9 -46 13 -166 14 -420 1 -364 8 -464 46 -655 36
-181 91 -330 156 -427 16 -24 39 -66 50 -95 42 -103 161 -253 248 -313 47 -32
117 -54 145 -45 33 10 23 23 -19 23 -59 1 -106 26 -178 94 -61 59 -153 175
-153 194 0 5 30 -21 68 -57 37 -36 87 -82 112 -101 63 -50 232 -141 313 -169
37 -13 67 -27 67 -30 0 -3 -10 -10 -23 -16 -114 -52 -185 -232 -192 -488 -2
-77 -11 -154 -25 -215 -14 -59 -24 -140 -26 -215 -3 -71 -8 -121 -15 -124 -5
-1 -2 -9 7 -15 15 -12 11 -17 -39 -50 -101 -67 -154 -146 -141 -211 5 -30 3
-35 -24 -49 -17 -9 -33 -20 -36 -25 -3 -4 52 -9 122 -10 l128 -2 12 48 c21 82
88 238 104 241 7 1 97 -24 198 -56 102 -33 236 -72 298 -88 61 -16 112 -31
112 -34 0 -3 -19 -13 -42 -22 -24 -10 -83 -33 -133 -52 -76 -30 -85 -35 -55
-36 31 0 159 47 233 85 16 8 40 15 53 15 58 0 14 19 -123 54 -135 33 -388 110
-571 173 l-72 25 22 18 c46 36 510 510 657 670 l152 165 111 55 c61 30 110 60
109 65 0 6 -11 13 -23 16 -13 4 -68 19 -123 34 -55 15 -125 39 -155 52 -30 14
-90 38 -134 53 -120 44 -205 112 -279 223 -40 60 -91 180 -102 240 -4 20 -12
40 -18 44 -6 3 -47 7 -91 8 -143 4 -213 33 -311 129 -42 41 -75 85 -92 122
-25 53 -28 70 -28 174 0 136 16 197 73 286 47 72 81 107 141 145 50 32 91 38
91 13 0 -16 53 -148 70 -174 18 -28 27 8 17 66 -8 47 -7 58 8 74 11 12 16 29
12 45 -2 15 -1 23 3 18 16 -17 71 -357 86 -536 3 -41 10 -65 16 -61 15 9 1
150 -39 388 -33 201 -37 250 -15 187 15 -43 64 -114 136 -196 103 -118 126
-139 139 -126 9 9 6 16 -12 30 -14 11 -19 21 -13 25 6 3 -3 30 -24 68 -18 35
-34 68 -34 75 0 16 188 88 312 118 205 51 385 26 666 -92 6 -3 12 -1 12 5 0
13 -100 56 -194 83 -44 13 -74 25 -68 27 19 6 182 -48 275 -90 48 -23 90 -38
94 -35 8 9 -182 98 -267 125 -65 21 -128 34 -250 52 -64 9 -64 9 22 5 138 -8
253 -39 401 -110 43 -21 80 -35 83 -32 3 3 -16 21 -43 41 -103 76 -312 141
-488 152 -79 5 -109 11 -144 30 -53 29 -62 25 -21 -9 16 -14 30 -28 30 -30 0
-23 -126 -3 -255 41 -33 12 -61 19 -63 18 -6 -7 77 -67 113 -82 21 -8 35 -18
31 -21 -7 -7 -91 15 -128 34 -16 7 -28 9 -28 4 0 -5 20 -17 45 -28 25 -10 45
-22 45 -27 0 -5 -44 -6 -100 -3 -131 7 -144 15 -159 102 -11 62 -10 70 19 158
17 50 33 99 37 107 3 8 5 21 4 28 -2 16 30 28 140 52 111 25 194 25 336 1 235
-41 434 -109 660 -226 67 -35 124 -61 127 -58 8 8 -6 37 -26 51 -10 7 -16 17
-13 22 3 5 -11 21 -31 37 -20 15 -57 45 -81 66 -42 35 -113 77 -130 77 -4 0
15 -14 42 -31 84 -52 75 -53 -30 -1 -124 61 -249 105 -276 97 -11 -4 -26 -1
-34 5 -24 20 -165 51 -255 57 -47 3 -90 10 -96 14 -15 12 -141 -12 -236 -45
-41 -14 -77 -26 -80 -26 -3 0 -6 39 -7 86 -1 48 -4 97 -7 109 -5 21 -3 22 100
28 93 5 114 10 173 39 48 23 69 39 71 54 3 19 12 22 85 27 200 15 408 88 510
178 86 75 164 205 193 324 6 22 10 0 15 -80 20 -318 148 -655 307 -809 34 -32
45 -37 68 -32 26 7 27 6 21 -30 -8 -49 -69 -176 -109 -226 -30 -38 -34 -40
-75 -35 -52 6 -58 -9 -6 -19 105 -20 310 69 471 203 28 25 52 41 52 38 0 -21
-85 -105 -115 -115 -41 -14 -47 -33 -7 -24 115 27 230 94 341 199 93 88 78 56
-21 -43 -67 -68 -63 -85 6 -23 l29 26 -19 -34 c-19 -33 -51 -68 -89 -95 -11
-8 -17 -18 -13 -22 9 -9 61 27 121 83 36 33 53 42 98 48 58 8 181 32 214 42
16 5 18 3 9 -8 -7 -8 -15 -28 -19 -46 -3 -18 -24 -60 -46 -94 -22 -34 -37 -64
-34 -67 9 -10 39 34 81 118 21 41 40 77 43 80 3 3 6 10 6 15 0 6 8 48 17 95
10 47 22 119 27 160 8 63 9 50 5 -73 -7 -192 -16 -242 -59 -332 -20 -41 -34
-77 -33 -81 2 -3 -10 -11 -27 -18 -23 -10 -26 -14 -13 -18 53 -21 228 128 305
260 20 34 30 42 54 42 24 0 29 -4 29 -25 0 -56 -86 -249 -120 -270 -6 -3 -10
-13 -10 -21 0 -12 8 -10 43 7 135 69 243 161 309 264 21 33 38 53 38 44 0 -34
-72 -157 -136 -232 -36 -43 -63 -81 -60 -84 3 -3 39 19 80 50 77 58 156 155
172 212 8 28 9 27 12 -19 4 -68 -43 -365 -62 -383 -7 -7 -76 17 -76 27 0 4 14
13 30 20 38 16 53 36 19 26 -47 -14 -130 -23 -135 -14 -3 4 1 8 8 8 7 0 33 19
58 41 40 35 41 38 14 25 -17 -8 -62 -20 -100 -26 -127 -19 -128 -20 -34 -49
79 -25 215 -89 207 -98 -2 -2 -39 13 -83 34 -43 20 -117 49 -164 64 -47 15
-78 28 -70 28 16 2 85 89 77 98 -3 3 -21 -6 -39 -20 -18 -14 -49 -32 -68 -40
l-35 -15 25 -10 c14 -6 21 -11 15 -11 -20 0 -140 27 -125 28 17 1 75 99 65
110 -4 3 -12 -1 -19 -9 -6 -8 -20 -21 -31 -27 -71 -44 -94 -51 -195 -58 -137
-8 -207 -22 -231 -46 -20 -20 -34 -26 -24 -9 3 6 -1 7 -9 4 -9 -3 -13 -11 -9
-17 3 -5 1 -7 -5 -3 -29 17 -271 -168 -272 -209 0 -5 5 -4 12 3 17 17 29 15
22 -3 -10 -24 5 -18 55 23 80 66 170 123 228 143 31 10 59 17 61 14 3 -3 11 0
18 6 30 25 268 33 394 13 54 -9 290 -84 334 -106 33 -17 37 -22 23 -30 -11 -5
-24 -5 -37 2 -34 18 -22 2 19 -26 l39 -25 -20 -47 c-32 -72 -103 -178 -153
-227 -25 -24 -45 -46 -45 -49 0 -13 28 -5 45 14 10 11 27 20 38 20 10 0 47 13
81 29 185 89 345 267 391 436 9 36 20 65 24 65 3 0 14 -12 24 -28 11 -15 39
-43 64 -62 38 -29 54 -34 96 -35 42 0 52 3 55 18 3 15 0 18 -16 13 -16 -5 -24
2 -41 39 -31 67 -29 75 24 75 104 0 242 -81 330 -194 63 -81 70 -110 69 -261
-1 -145 -17 -208 -74 -290 -55 -80 -188 -163 -288 -180 -120 -20 -331 15 -395
65 -30 24 -37 25 -37 6 0 -16 50 -41 130 -67 73 -24 42 -24 -42 0 -43 11 -74
27 -86 41 l-19 24 -13 -55 c-16 -66 -73 -210 -105 -264 -40 -69 -129 -165
-191 -208 -79 -55 -209 -116 -364 -171 -156 -56 -144 -60 18 -6 139 46 206 74
294 125 l63 36 -35 -32 -35 -31 50 27 50 27 -49 -45 c-28 -24 -76 -54 -108
-67 -33 -13 -62 -29 -66 -35 -4 -7 -20 -15 -37 -18 -16 -4 -95 -20 -175 -37
-80 -17 -201 -37 -270 -46 -69 -8 -134 -17 -145 -19 -66 -15 -406 -32 -722
-38 -108 -2 -120 -4 -107 -17 13 -13 70 -15 389 -15 206 0 375 -1 375 -1 0 -1
-37 -24 -82 -52 -79 -47 -170 -93 -212 -107 -14 -4 -16 -9 -9 -16 31 -31 381
183 359 219 -3 5 66 19 152 31 86 12 172 25 190 28 22 4 32 1 32 -8 0 -25 75
-139 91 -139 10 0 19 -11 22 -28 22 -122 67 -409 72 -457 9 -88 14 -107 27
-99 8 5 10 -77 5 -314 -3 -177 -1 -322 3 -322 16 0 19 56 21 375 1 196 -3 341
-9 375 -6 30 -21 129 -32 220 -28 215 -50 340 -61 340 -12 0 -12 3 10 -125 19
-110 35 -249 26 -230 -2 6 -16 78 -30 160 -14 83 -31 169 -37 192 -13 55 -32
57 -23 3 9 -55 0 -50 -20 10 -14 42 -20 50 -36 45 -10 -4 -19 -2 -19 2 0 5 29
16 65 24 50 12 70 12 83 4 32 -21 140 -65 168 -69 54 -7 79 -28 194 -164 220
-259 416 -466 612 -646 54 -49 96 -92 93 -94 -2 -2 -44 5 -92 17 -141 35 -331
69 -343 61 -6 -3 32 -15 84 -25 l95 -19 24 -45 c30 -56 109 -263 132 -348 10
-35 22 -63 26 -63 5 0 9 4 9 8 0 19 -35 125 -82 250 -27 74 -48 135 -46 138 8
7 87 -202 115 -301 l27 -95 133 0 132 0 10 38 c49 184 34 417 -40 629 -27 74
-29 90 -23 166 4 55 2 103 -6 138 -46 196 -260 481 -458 610 -47 31 -67 49
-55 49 12 0 26 -7 33 -15 8 -9 30 -15 60 -15 106 0 266 118 383 281 47 67 120
206 130 250 4 14 22 45 41 69 19 25 34 45 33 47 -2 1 -35 -29 -75 -67 -87 -84
-120 -94 -39 -13 97 98 147 221 147 368 0 39 4 75 9 80 10 11 24 67 46 180 7
39 27 122 43 185 17 63 36 153 44 200 22 139 16 791 -8 990 -6 47 -72 311 -80
319 -8 8 -4 -9 31 -145 35 -133 47 -221 20 -139 -18 56 -18 43 4 -92 52 -315
54 -708 5 -998 -19 -110 -34 -133 -21 -33 5 40 9 222 10 403 2 344 -1 383 -48
660 -28 164 -48 231 -121 416 -30 75 -54 144 -54 153 0 39 -141 283 -244 423
-57 78 -65 96 -21 48 66 -74 194 -272 256 -396 38 -78 59 -111 55 -89 -27 148
-292 530 -513 741 -240 228 -654 439 -1023 522 -79 18 -130 21 -300 22 -202 1
-206 2 -265 29 -106 48 -164 58 -385 61 -140 3 -237 0 -305 -10z m2119 -539
c166 -136 304 -295 459 -532 69 -105 152 -253 145 -259 -2 -2 -34 48 -72 112
-84 140 -204 309 -296 418 -91 107 -216 228 -201 195 10 -21 10 -22 -1 -5 -7
10 -40 47 -74 82 -33 35 -58 63 -56 63 3 0 46 -33 96 -74z m-3170 -1017 c15
-12 25 -24 22 -27 -3 -3 4 -20 15 -38 40 -66 87 -171 135 -304 l48 -135 1
-132 c0 -73 2 -133 5 -133 4 0 11 5 18 12 6 6 15 8 19 4 14 -14 -14 -41 -73
-70 -53 -26 -70 -29 -162 -30 l-103 -1 -21 37 c-27 47 -19 57 17 24 16 -15 36
-26 46 -26 27 0 24 5 -15 28 -80 47 -142 282 -160 602 -8 137 0 170 44 192 51
25 131 23 164 -3z m1065 -200 c-32 -91 -184 -268 -320 -369 -71 -52 -204 -118
-217 -106 -3 3 4 8 14 12 90 31 254 141 254 169 0 7 24 42 53 77 29 35 75 94
102 132 66 94 106 139 117 128 4 -4 3 -23 -3 -43z m201 -122 c1 -32 35 -158
71 -256 52 -143 167 -361 190 -361 5 0 9 -20 9 -45 0 -32 -4 -45 -14 -45 -32
0 -122 140 -180 281 -51 123 -118 474 -87 455 6 -4 11 -17 11 -29z m936 -138
c-42 -266 -153 -521 -294 -679 -59 -66 -63 -42 -4 28 145 175 249 430 283 693
8 63 15 87 22 80 8 -8 6 -44 -7 -122z m-626 -156 c10 -102 -1 -347 -16 -362
-2 -2 -4 4 -4 15 0 10 -1 130 -2 266 -3 254 4 278 22 81z m827 -39 c17 -95 24
-343 10 -405 l-7 -36 -105 -14 c-58 -8 -105 -13 -105 -12 0 1 16 30 36 63 62
106 125 303 140 438 4 34 8 61 11 59 2 -2 11 -44 20 -93z m-924 -375 c37 -36
48 -77 22 -81 -18 -3 -103 133 -139 223 -52 128 -44 130 22 5 31 -60 74 -126
95 -147z m-1550 16 c2 -92 1 -97 -23 -115 -25 -19 -25 -19 -28 2 -2 11 4 70
14 130 21 130 34 124 37 -17z m2813 43 c-12 -112 -17 -128 -37 -128 -11 0 -19
2 -19 6 0 13 54 184 58 184 3 0 2 -28 -2 -62z m572 -224 c4 -111 -6 -269 -16
-259 -12 11 -8 365 3 362 6 -2 11 -48 13 -103z m-3299 92 c-14 -12 -69 -35
-69 -28 0 4 12 13 28 19 28 11 48 16 41 9z m3408 -138 c0 -79 5 -163 11 -187
6 -24 8 -50 5 -57 -6 -16 -43 -19 -43 -4 0 6 4 10 9 10 6 0 8 41 4 103 -5 86
3 277 11 277 2 0 3 -64 3 -142z m-2662 101 c87 -33 268 -122 333 -163 70 -44
56 -48 -20 -6 -122 68 -259 136 -333 165 -38 15 -72 29 -74 31 -11 11 22 1 94
-27z m-847 -61 c-6 -17 -36 -34 -45 -24 -4 4 1 14 11 22 24 17 39 18 34 2z
m-14 -60 c-4 -13 -13 -39 -20 -58 l-13 -35 0 52 c-1 48 5 60 32 62 5 1 5 -9 1
-21z m-171 -320 c-12 -21 -23 -3 -22 35 l1 42 12 -35 c8 -19 11 -38 9 -42z
m892 37 l60 -14 -56 5 c-31 3 -71 10 -90 14 l-34 8 30 1 c17 0 57 -6 90 -14z
m1858 8 c-7 -2 -21 -2 -30 0 -10 3 -4 5 12 5 17 0 24 -2 18 -5z m-2054 -7 c-5
-5 -180 -36 -194 -35 -20 2 131 37 164 38 19 1 32 -1 30 -3z m2114 -3 c-7 -2
-19 -2 -25 0 -7 3 -2 5 12 5 14 0 19 -2 13 -5z m50 -10 c-7 -2 -19 -2 -25 0
-7 3 -2 5 12 5 14 0 19 -2 13 -5z m112 -22 c80 -23 149 -50 143 -57 -3 -2 -21
3 -41 11 -20 8 -73 26 -119 39 -46 14 -76 25 -68 25 9 1 47 -8 85 -18z m-2770
-25 c11 -7 34 -18 50 -23 25 -9 27 -12 12 -18 -9 -4 -32 -4 -51 -1 -26 5 -35
12 -38 31 -6 28 -1 31 27 11z m734 -12 c10 -9 -35 -3 -49 6 -11 8 -7 9 15 4
17 -4 32 -8 34 -10z m1331 -14 c-14 -10 -43 -29 -65 -41 l-40 -22 20 23 c11
12 38 31 60 41 51 24 56 23 25 -1z m-1920 -55 c-146 -51 -130 -47 -130 -37 0
4 39 21 88 36 48 15 98 32 112 36 14 5 32 8 40 9 8 0 -41 -20 -110 -44z m-133
19 c-3 -3 -12 -4 -19 -1 -8 3 -5 6 6 6 11 1 17 -2 13 -5z m-820 -266 c-3 -7
-5 -2 -5 12 0 14 2 19 5 13 2 -7 2 -19 0 -25z m92 -390 c28 -95 84 -247 112
-301 8 -15 8 -19 1 -12 -22 21 -92 174 -121 265 -35 109 -67 266 -75 360 -4
51 1 36 24 -71 16 -75 42 -183 59 -241z m-72 90 c-3 -8 -6 -5 -6 6 -1 11 2 17
5 13 3 -3 4 -12 1 -19z m55 -168 c35 -109 78 -196 154 -312 30 -45 52 -83 50
-85 -7 -8 -135 140 -159 185 -26 47 -80 239 -91 322 -7 52 -5 47 46 -110z
m4454 -35 c-25 -19 -112 -44 -173 -50 -36 -4 -27 0 34 15 45 11 97 26 115 34
42 18 47 19 24 1z m-4011 -115 c22 -7 67 -16 100 -20 l60 -7 -57 -2 c-97 -2
-221 50 -283 119 -12 13 12 2 60 -27 44 -28 98 -56 120 -63z m3640 90 c27 -7
27 -8 5 -8 -14 0 -36 4 -50 8 -20 6 -21 8 -5 8 11 0 34 -4 50 -8z m-135 -22
c0 -23 -96 -212 -124 -245 -51 -60 -46 -34 8 47 30 44 64 109 77 145 21 59 39
84 39 53z m-3483 -54 c-3 -3 -12 -4 -19 -1 -8 3 -5 6 6 6 11 1 17 -2 13 -5z
m-117 -289 c28 -35 72 -82 98 -104 l47 -42 -40 20 c-61 31 -149 139 -228 282
-58 103 -43 103 18 0 30 -51 78 -121 105 -156z m3393 61 c-10 -13 -20 -22 -22
-20 -4 4 29 44 36 44 2 0 -4 -11 -14 -24z m517 -66 c-37 -29 -129 -61 -164
-58 -27 3 -23 5 24 16 30 7 78 23 105 36 62 30 67 31 35 6z m-3502 -184 c12
-4 22 -12 22 -18 0 -27 -81 29 -135 93 -22 27 -46 55 -52 63 -7 8 -13 18 -13
21 0 4 35 -29 78 -73 42 -44 87 -83 100 -86z m-67 -4 c24 -18 49 -36 55 -41 7
-6 28 -13 48 -16 48 -9 56 -25 13 -25 -89 0 -236 -211 -318 -455 -24 -69 -24
-70 -27 -32 -5 57 14 193 37 267 40 130 119 211 218 226 l45 7 -33 15 c-43 21
-125 104 -149 152 -34 66 -22 65 23 -2 24 -35 63 -78 88 -96z m3318 102 c72
-39 150 -103 235 -192 73 -77 114 -131 170 -228 68 -117 96 -202 96 -296 0
-75 -12 -101 -27 -60 -10 27 -172 320 -216 392 -78 125 -176 249 -281 358 -33
34 -56 62 -52 62 5 0 39 -16 75 -36z m-1581 -311 c-16 -2 -40 -2 -55 0 -16 2
-3 4 27 4 30 0 43 -2 28 -4z m-1444 -332 c-15 -15 -16 -14 -10 9 3 14 9 43 14
65 l7 40 3 -49 c2 -36 -1 -53 -14 -65z m-424 -61 c-14 -69 -20 -136 -20 -241
l0 -145 -30 -29 c-16 -16 -33 -26 -36 -22 -12 11 23 303 46 387 16 60 51 152
56 148 2 -2 -6 -46 -16 -98z m3637 -137 c63 -104 103 -188 103 -220 0 -12 -16
-1 -50 32 -30 30 -50 58 -50 72 0 40 -45 146 -93 221 -26 40 -47 78 -47 84 0
17 68 -76 137 -189z m-870 155 c-3 -8 -6 -5 -6 6 -1 11 2 17 5 13 3 -3 4 -12
1 -19z m957 -489 c43 -11 44 -11 49 -62 21 -178 19 -337 -4 -337 -5 0 -9 7 -9
16 0 22 -68 219 -88 259 -21 39 -23 135 -4 135 7 0 33 -5 56 -11z m-3804 -119
c0 -6 -8 -27 -19 -48 -10 -20 -28 -68 -41 -105 -12 -38 -24 -66 -27 -63 -11
11 62 226 78 226 5 0 9 -5 9 -10z m-83 -117 c-8 -30 -26 -50 -81 -94 -73 -58
-115 -84 -122 -76 -2 2 16 18 40 35 24 18 73 63 108 102 35 38 63 69 64 70 1
0 -3 -17 -9 -37z"/>
<path d="M1626 4405 c-32 -32 -40 -93 -27 -215 15 -143 33 -217 73 -298 30
-62 58 -88 66 -64 2 7 13 10 27 6 13 -3 38 1 57 9 18 8 41 17 51 21 20 6 21
18 6 121 -11 80 -64 247 -104 324 -26 52 -88 111 -115 111 -10 0 -26 -7 -34
-15z"/>
<path d="M1866 3768 c-31 -16 -51 -19 -89 -15 -35 5 -47 3 -44 -6 5 -16 103
-21 138 -7 32 14 54 36 42 43 -4 3 -26 -4 -47 -15z"/>
<path d="M2685 4194 c-99 -136 -104 -145 -56 -94 75 81 152 190 134 190 -5 0
-40 -43 -78 -96z"/>
<path d="M4422 2815 c0 -16 2 -22 5 -12 2 9 2 23 0 30 -3 6 -5 -1 -5 -18z"/>
<path d="M3892 2790 c0 -19 2 -27 5 -17 2 9 2 25 0 35 -3 9 -5 1 -5 -18z"/>
<path d="M4096 2799 c-19 -28 -4 -62 26 -57 29 4 46 33 32 56 -16 25 -40 26
-58 1z"/>
<path d="M2464 2740 c1 -41 -3 -88 -7 -105 -8 -28 -8 -29 7 -11 17 21 21 118
7 166 -5 15 -7 -4 -7 -50z"/>
<path d="M2187 2783 c-11 -11 -8 -48 5 -61 7 -7 22 -12 35 -12 27 0 42 42 23
65 -13 15 -51 20 -63 8z"/>
<path d="M4395 2685 c-9 -36 -21 -65 -26 -65 -5 0 -9 -4 -9 -10 0 -5 7 -7 14
-4 20 8 63 144 47 144 -5 0 -16 -29 -26 -65z"/>
<path d="M2432 2655 c0 -16 2 -22 5 -12 2 9 2 23 0 30 -3 6 -5 -1 -5 -18z"/>
<path d="M3560 1874 c0 -21 -78 -53 -190 -76 -160 -34 -409 -8 -471 48 -22 20
-38 11 -19 -11 16 -20 128 -52 229 -67 125 -17 342 16 444 69 22 11 32 12 43
2 28 -23 22 -4 -7 23 -21 20 -29 23 -29 12z"/>
<path d="M2447 1245 l-55 -46 -7 -117 c-4 -64 -17 -243 -30 -397 -13 -154 -22
-281 -20 -283 14 -14 23 22 29 110 13 186 36 471 39 475 5 4 193 -384 226
-467 16 -41 39 -97 50 -124 l21 -48 21 25 c11 15 72 100 136 189 64 90 127
179 141 198 20 27 21 30 5 15 -12 -11 -80 -99 -153 -195 -72 -96 -135 -176
-139 -178 -5 -2 -24 37 -44 86 -19 48 -84 189 -144 313 -106 220 -108 226
-111 304 l-4 80 50 38 c63 48 80 67 59 67 -8 0 -40 -20 -70 -45z"/>
<path d="M2815 1280 c-3 -6 8 -18 25 -28 17 -9 55 -32 83 -51 29 -18 94 -58
145 -87 51 -30 104 -61 117 -70 14 -9 25 -12 25 -6 0 13 -35 38 -125 87 -38
21 -108 64 -155 95 -111 74 -108 72 -115 60z"/>
<path d="M4115 1063 c-76 -250 -125 -389 -202 -572 -4 -8 -1 -12 7 -9 25 8
152 355 236 651 3 9 1 17 -5 17 -5 0 -22 -39 -36 -87z"/>
<path d="M3270 1026 c-16 -57 -9 -95 9 -51 18 43 25 95 14 95 -6 0 -16 -20
-23 -44z"/>
<path d="M3355 1038 c19 -62 105 -183 247 -345 129 -147 285 -279 306 -259 6
7 10 4 -58 49 -49 32 -224 202 -305 297 -62 72 -125 165 -152 222 -26 57 -51
80 -38 36z"/>
<path d="M3204 993 c4 -16 9 -36 12 -45 4 -13 -3 -18 -28 -21 -29 -3 -28 -4
10 -5 46 -2 48 1 31 61 -12 43 -35 52 -25 10z"/>
<path d="M3142 958 c-26 -40 -28 -48 -22 -108 l5 -65 8 54 c6 39 5 56 -4 62
-9 5 -4 17 19 44 29 32 40 55 27 55 -2 0 -17 -19 -33 -42z"/>
<path d="M3079 873 c-13 -16 -12 -17 4 -4 16 13 21 21 13 21 -2 0 -10 -8 -17
-17z"/>
<path d="M3224 844 c-19 -15 -19 -16 1 -9 48 18 62 16 93 -10 26 -22 32 -34
32 -65 0 -66 -57 -100 -120 -73 -39 16 -40 16 -40 2 0 -19 33 -38 64 -39 38 0
103 37 110 64 3 12 6 36 6 54 0 70 -93 119 -146 76z"/>
<path d="M3039 823 l-24 -28 28 24 c15 14 27 26 27 28 0 8 -8 1 -31 -24z"/>
<path d="M2317 383 c-7 -13 53 -327 65 -338 14 -13 4 64 -26 218 -24 117 -30
136 -39 120z"/>
<path d="M4273 335 c0 -27 2 -38 4 -22 2 15 2 37 0 50 -2 12 -4 0 -4 -28z"/>
<path d="M3128 320 c-4 -14 -9 -70 -12 -126 -3 -55 -9 -121 -12 -147 -4 -29
-3 -47 3 -47 12 0 36 235 31 300 -3 37 -5 40 -10 20z"/>
<path d="M4520 268 c0 -21 249 -135 414 -189 83 -28 156 -57 162 -65 6 -8 15
-14 20 -14 16 1 59 38 52 46 -4 4 -13 2 -20 -4 -9 -7 -57 5 -168 42 -171 58
-234 84 -360 148 -47 23 -88 44 -92 46 -5 2 -8 -2 -8 -10z"/>
<path d="M4429 233 c-13 -16 -12 -17 4 -4 16 13 21 21 13 21 -2 0 -10 -8 -17
-17z"/>
<path d="M4264 120 c0 -69 1 -97 3 -63 2 35 2 91 0 125 -2 35 -3 7 -3 -62z"/>
<path d="M4389 203 c-13 -16 -12 -17 4 -4 9 7 17 15 17 17 0 8 -8 3 -21 -13z"/>
<path d="M4349 173 c-13 -16 -12 -17 4 -4 16 13 21 21 13 21 -2 0 -10 -8 -17
-17z"/>
<path d="M2376 21 c-4 -7 -5 -15 -2 -18 9 -9 19 4 14 18 -4 11 -6 11 -12 0z"/>
<path d="M3306 17 c3 -10 9 -15 12 -12 3 3 0 11 -7 18 -10 9 -11 8 -5 -6z"/>
</g>
</svg>
